<?xml version="1.0" encoding="UTF-8" ?>
<!DOCTYPE svg PUBLIC "-//W3C//DTD SVG 1.1//EN" "http://www.w3.org/Graphics/SVG/1.1/DTD/svg11.dtd">
<svg width="298pt" height="339pt" viewBox="0 0 298 339" version="1.1" xmlns="http://www.w3.org/2000/svg">
<g id="#fefffeff">
</g>
<g id="#d03d22ff">
<path fill="#d03d22" opacity="1.00" d=" M 175.00 4.23 C 180.14 7.70 184.73 11.95 189.67 15.70 C 188.65 16.12 187.57 16.44 186.48 16.53 C 182.89 24.89 180.50 33.70 177.23 42.19 C 181.30 40.46 185.00 38.00 188.47 35.28 C 188.16 36.31 187.78 37.31 187.34 38.28 L 186.95 38.71 C 180.32 41.63 174.80 46.54 168.25 49.66 C 166.84 48.57 165.45 47.44 164.02 46.38 C 166.62 36.26 170.33 26.47 173.51 16.53 C 174.69 12.59 177.10 8.32 175.00 4.23 Z" />
<path fill="#d03d22" opacity="1.00" d=" M 127.43 13.24 C 128.69 12.21 129.94 11.18 131.19 10.14 C 133.43 14.48 136.60 18.32 138.30 22.93 C 135.17 20.41 132.23 17.10 128.06 16.44 C 124.49 15.93 121.39 18.29 119.08 20.74 C 121.97 25.77 125.41 30.44 128.51 35.33 C 132.83 32.85 131.75 27.68 131.69 23.52 C 135.11 28.18 138.52 32.91 141.14 38.07 C 138.87 36.82 136.72 35.13 134.10 34.68 C 132.34 34.77 130.68 35.43 128.98 35.83 C 132.10 40.98 135.34 46.06 138.85 50.96 C 141.79 49.88 145.00 48.38 146.23 45.26 C 147.79 40.47 146.01 35.49 145.31 30.71 C 148.15 34.46 150.36 38.66 153.55 42.14 C 153.51 42.72 153.47 43.30 153.44 43.87 C 144.52 49.02 136.05 54.90 127.59 60.76 C 127.08 60.57 126.06 60.19 125.56 60.00 C 126.30 59.79 127.78 59.38 128.52 59.17 C 128.38 57.36 128.10 55.54 126.96 54.06 C 121.33 45.61 115.88 37.04 110.24 28.59 C 109.74 28.33 108.72 27.82 108.22 27.56 C 106.95 27.84 105.68 28.12 104.40 28.34 C 106.89 26.32 109.65 24.65 112.46 23.10 C 112.56 22.74 112.75 22.02 112.85 21.67 C 113.00 21.84 113.31 22.20 113.47 22.37 C 118.03 19.19 122.68 16.13 127.43 13.24 Z" />
<path fill="#d03d22" opacity="1.00" d=" M 193.55 18.77 C 198.49 22.95 203.80 26.69 208.50 31.14 C 207.10 30.61 205.72 30.03 204.36 29.42 C 201.78 32.46 200.86 36.42 199.48 40.07 C 197.70 45.08 195.76 50.03 194.04 55.07 C 199.41 51.44 204.94 48.04 209.98 43.97 C 212.11 42.39 213.28 39.94 213.66 37.36 C 212.97 35.99 212.37 34.59 211.77 33.19 C 215.06 35.96 218.37 38.70 221.89 41.18 C 219.12 41.66 216.19 41.93 213.77 43.48 C 203.98 49.68 194.75 56.73 184.96 62.94 C 183.45 61.70 181.92 60.48 180.40 59.25 C 182.75 53.23 184.82 47.10 187.28 41.12 C 187.96 39.52 188.22 37.79 188.53 36.09 C 191.12 30.73 194.36 24.93 193.55 18.77 Z" />
<path fill="#d03d22" opacity="1.00" d=" M 89.67 37.75 C 93.35 35.41 97.64 33.62 102.09 34.24 C 104.95 34.17 107.01 36.37 109.12 37.96 C 110.41 41.65 111.54 45.94 109.57 49.62 C 107.57 54.36 103.17 57.33 98.96 59.97 C 101.03 63.78 103.59 67.28 105.96 70.89 C 108.46 70.71 110.90 70.11 113.33 69.56 C 107.61 73.90 101.31 77.42 95.48 81.61 C 94.71 81.44 93.94 81.28 93.17 81.11 C 94.13 80.81 95.09 80.52 96.06 80.23 C 97.02 76.79 94.05 74.18 92.52 71.44 C 87.53 64.37 83.30 56.77 78.09 49.86 C 76.92 47.79 74.35 49.13 72.50 48.99 C 78.30 45.35 83.90 41.42 89.67 37.75 M 87.46 39.94 C 87.58 41.50 87.65 43.13 88.59 44.46 C 91.67 49.50 95.26 54.21 98.22 59.33 C 99.73 58.07 101.21 56.75 102.62 55.38 C 102.22 48.50 98.09 41.91 92.22 38.37 C 90.63 38.90 89.05 39.43 87.46 39.94 Z" />
<path fill="#d03d22" opacity="1.00" d=" M 140.28 56.23 C 146.18 52.25 152.31 48.63 158.02 44.37 C 202.90 79.75 247.78 115.15 292.77 150.40 C 283.32 156.84 273.18 162.22 263.74 168.71 C 274.43 177.11 285.11 185.51 295.77 193.94 C 250.69 223.53 205.68 253.22 160.56 282.75 C 155.43 286.18 150.31 289.63 144.99 292.76 C 123.14 275.33 101.04 258.22 79.17 240.82 C 56.14 222.95 33.47 204.60 10.33 186.88 C 19.13 181.41 27.52 175.32 36.38 169.97 C 36.49 169.62 36.70 168.91 36.81 168.56 C 32.99 164.69 27.33 162.10 25.52 156.66 C 24.18 156.39 22.60 156.54 21.60 155.41 C 17.05 151.35 12.56 147.21 7.70 143.50 C 25.17 131.61 42.95 120.19 60.57 108.51 C 87.22 91.20 113.59 73.47 140.28 56.23 M 24.98 145.70 C 32.05 151.60 38.79 157.89 45.90 163.74 C 72.45 145.94 99.27 128.52 125.97 110.93 C 137.56 103.23 149.38 95.86 160.79 87.90 C 167.48 92.48 173.55 97.89 180.00 102.79 C 205.28 122.67 230.53 142.61 255.84 162.45 C 262.60 157.71 269.80 153.66 276.67 149.10 C 237.56 118.58 198.70 87.74 159.66 57.12 C 114.75 86.61 69.74 115.98 24.98 145.70 Z" />
<path fill="#d03d22" opacity="1.00" d=" M 227.84 54.61 C 230.01 53.30 232.24 52.06 234.65 51.25 C 235.96 52.44 237.31 53.60 238.66 54.75 C 236.21 63.47 233.23 72.03 230.70 80.72 C 229.14 86.05 226.54 91.30 227.40 97.01 C 222.39 92.49 217.00 88.41 211.71 84.21 C 213.24 84.40 214.78 84.55 216.33 84.66 C 218.76 80.89 219.71 76.40 220.88 72.13 C 217.89 69.90 215.02 67.53 212.07 65.26 C 209.05 67.24 205.54 68.81 203.40 71.84 C 203.27 73.18 203.20 74.53 203.20 75.88 C 203.74 76.37 204.80 77.36 205.34 77.85 C 204.75 77.76 203.58 77.58 203.00 77.49 C 200.41 75.12 197.63 72.97 194.83 70.88 C 197.85 70.76 200.96 70.43 203.59 68.80 C 211.71 64.14 219.84 59.47 227.84 54.61 M 214.07 64.04 C 214.20 64.52 214.45 65.50 214.58 65.98 C 216.89 67.70 219.14 69.49 221.42 71.24 C 221.90 69.76 222.39 68.29 222.87 66.81 C 223.91 63.73 224.94 60.64 226.02 57.57 C 221.85 59.38 218.07 61.91 214.07 64.04 Z" />
<path fill="#d03d22" opacity="1.00" d=" M 51.31 63.13 C 54.76 60.65 58.28 58.27 61.91 56.06 C 61.46 59.20 60.95 62.41 61.51 65.58 C 63.98 76.70 66.98 87.70 69.44 98.82 C 67.86 99.78 66.32 100.81 64.67 101.64 C 63.35 101.28 62.25 100.41 61.10 99.70 C 53.80 94.72 46.49 89.77 39.14 84.86 C 35.47 82.45 32.01 79.32 27.46 78.79 C 33.16 74.99 38.62 70.64 44.88 67.82 C 43.83 69.18 42.72 70.50 41.65 71.84 C 49.27 78.03 57.65 83.20 65.63 88.90 C 64.51 83.07 63.06 77.31 61.61 71.56 C 60.88 69.17 60.23 66.64 58.67 64.64 C 56.87 62.48 53.76 63.41 51.31 63.13 Z" />
<path fill="#d03d22" opacity="1.00" d=" M 252.19 65.94 C 258.09 69.99 263.65 74.57 269.08 79.24 C 267.54 78.70 266.02 78.14 264.52 77.53 C 261.56 79.93 259.09 82.85 256.83 85.90 C 251.73 92.72 245.85 98.94 241.21 106.10 C 243.28 107.74 245.29 110.11 248.21 109.82 C 253.69 110.33 258.26 107.04 262.95 104.81 C 260.09 109.01 256.95 113.02 253.74 116.96 C 250.56 115.93 248.39 113.15 245.75 111.24 C 239.85 106.21 233.23 102.02 227.74 96.52 C 229.26 96.65 230.82 97.86 232.39 97.47 C 234.33 96.00 235.71 93.97 237.21 92.09 C 241.93 85.91 246.97 79.98 251.74 73.84 C 252.58 72.61 253.67 71.42 253.90 69.89 C 253.70 68.45 252.80 67.23 252.19 65.94 Z" />
<path fill="#d03d22" opacity="1.00" d=" M 24.89 79.14 C 28.55 82.97 31.05 87.76 33.55 92.39 C 30.07 90.04 27.48 85.96 22.99 85.48 C 18.47 84.63 13.46 87.50 12.48 92.11 C 11.79 97.22 14.27 102.06 16.61 106.44 C 19.91 111.84 23.97 117.30 29.91 119.95 C 32.82 121.21 35.80 119.70 38.43 118.49 C 39.80 116.17 41.69 113.85 41.57 111.00 C 41.92 107.33 39.65 104.25 38.18 101.08 C 38.63 101.27 39.55 101.64 40.01 101.82 C 42.85 105.64 45.56 109.58 47.83 113.77 C 46.46 112.94 45.12 112.06 43.77 111.20 C 42.06 114.25 40.86 117.78 38.04 120.02 C 32.87 124.11 26.01 126.81 19.39 125.16 C 8.16 122.31 0.76 109.06 4.30 98.00 C 6.13 92.01 11.04 87.38 16.65 84.88 C 19.61 83.96 22.75 83.95 25.80 83.59 C 25.48 82.11 25.18 80.62 24.89 79.14 Z" />
<path fill="#d03d22" opacity="1.00" d=" M 279.91 87.79 C 285.47 91.93 290.86 96.31 296.18 100.75 C 294.06 100.48 291.18 98.83 290.69 101.95 L 290.92 100.10 C 286.85 105.00 283.06 110.11 279.05 115.05 C 275.77 119.26 272.02 123.15 269.39 127.84 C 270.25 129.15 271.09 130.47 271.91 131.81 C 266.22 127.71 260.74 123.32 255.38 118.80 C 256.84 119.14 258.30 119.59 259.80 119.80 C 261.05 119.13 261.98 118.02 262.86 116.93 C 268.09 110.16 273.39 103.44 278.81 96.83 C 280.14 95.24 281.15 93.43 282.00 91.55 C 281.28 90.31 280.57 89.06 279.91 87.79 Z" />
<path fill="#d03d22" opacity="1.00" d=" M 98.39 296.52 C 103.55 296.45 109.38 296.98 113.29 300.77 C 117.68 304.82 116.83 312.53 112.29 316.15 C 107.83 320.27 101.47 320.33 95.76 320.46 C 95.76 325.07 95.63 329.72 96.44 334.29 C 98.67 334.82 100.90 335.37 103.11 336.04 C 95.21 336.68 87.24 336.27 79.31 336.26 C 80.94 335.58 82.58 334.92 84.23 334.29 C 84.48 326.85 84.29 319.42 84.34 311.99 C 84.30 307.47 84.66 302.90 83.79 298.44 C 82.31 297.91 80.83 297.36 79.36 296.81 C 85.69 296.34 92.05 296.68 98.39 296.52 M 95.77 318.99 C 98.17 318.76 101.24 319.16 102.50 316.58 C 105.39 311.01 104.69 304.13 102.33 298.49 C 100.45 298.06 98.55 297.67 96.65 297.36 C 95.06 304.46 96.01 311.79 95.77 318.99 Z" />
<path fill="#d03d22" opacity="1.00" d=" M 138.66 296.60 C 145.34 296.56 152.01 296.48 158.68 296.71 C 157.56 297.17 155.30 298.09 154.18 298.56 C 153.85 301.77 155.22 304.79 156.13 307.80 C 158.08 313.58 159.99 319.37 161.89 325.16 C 163.50 318.36 166.51 311.94 167.57 305.00 C 167.94 302.84 167.25 300.75 166.49 298.77 C 164.94 298.13 163.40 297.47 161.88 296.79 C 166.23 296.40 170.59 296.56 174.95 296.62 C 172.66 299.11 170.29 301.72 169.39 305.07 C 166.22 315.49 162.91 325.88 159.92 336.35 C 157.83 336.36 155.75 336.36 153.67 336.36 C 151.36 328.77 148.87 321.23 146.18 313.76 C 144.22 321.49 141.13 328.87 138.53 336.40 C 136.52 336.38 134.51 336.38 132.51 336.39 C 129.26 327.36 125.85 318.38 122.48 309.40 C 120.72 304.90 119.73 299.82 115.88 296.53 C 121.87 296.49 127.86 296.64 133.85 296.51 C 132.77 298.08 131.75 299.92 132.58 301.86 C 135.14 309.87 138.29 317.68 140.91 325.68 C 142.16 320.97 144.62 316.63 145.58 311.87 C 144.65 307.41 142.77 303.20 141.37 298.87 C 140.46 298.11 139.56 297.36 138.66 296.60 Z" />
<path fill="#d03d22" opacity="1.00" d=" M 174.81 296.84 C 181.93 296.41 189.11 296.32 196.23 296.91 C 194.67 297.43 193.11 297.94 191.56 298.46 C 191.20 310.46 191.13 322.50 191.60 334.50 C 193.12 335.05 194.64 335.59 196.16 336.16 C 189.18 336.40 182.15 336.58 175.18 336.07 C 176.61 335.47 178.05 334.89 179.49 334.32 C 179.81 322.48 179.90 310.61 179.49 298.77 C 177.92 298.14 176.35 297.50 174.81 296.84 Z" />
</g>
</svg>
