<!DOCTYPE svg PUBLIC "-//W3C//DTD SVG 1.1//EN" "http://www.w3.org/Graphics/SVG/1.1/DTD/svg11.dtd">
<!-- Uploaded to: SVG Repo, www.svgrepo.com, Transformed by: SVG Repo Mixer Tools -->
<svg fill="#0a25f0" height="800px" width="800px" version="1.1" xmlns="http://www.w3.org/2000/svg" viewBox="0 0 471.31 471.31" xmlns:xlink="http://www.w3.org/1999/xlink" enable-background="new 0 0 471.31 471.31">
<g id="SVGRepo_bgCarrier" stroke-width="0"/>
<g id="SVGRepo_tracerCarrier" stroke-linecap="round" stroke-linejoin="round"/>
<g id="SVGRepo_iconCarrier"> <g> <path d="m263.427,364.524c2.63,0 5.21-1.07 7.07-2.93s2.93-4.44 2.93-7.07c0-2.63-1.069-5.21-2.93-7.07-1.86-1.86-4.44-2.93-7.07-2.93s-5.21,1.07-7.069,2.93c-1.86,1.86-2.931,4.44-2.931,7.07 0,2.63 1.07,5.21 2.931,7.07 1.859,1.86 4.439,2.93 7.069,2.93z"/> <path d="m256.358,393.094c1.859,1.86 4.439,2.93 7.069,2.93s5.21-1.07 7.07-2.93 2.93-4.44 2.93-7.07c0-2.63-1.069-5.21-2.93-7.07-1.86-1.87-4.44-2.93-7.07-2.93s-5.21,1.06-7.069,2.93c-1.86,1.86-2.931,4.44-2.931,7.07 0,2.63 1.071,5.21 2.931,7.07z"/> <path d="m407.956,200.829l-197.9-197.9c-3.906-3.905-10.236-3.905-14.143,0l-132.559,132.559c-3.905,3.905-3.905,10.237 1.42109e-14,14.142l179.472,179.472c1.876,1.876 4.42,2.929 7.073,2.929l36.861-.006c2.651,0 5.194-1.054 7.069-2.929l114.126-114.126c1.875-1.875 2.929-4.419 2.929-7.071s-1.053-5.195-2.928-7.07zm-61.114-32.829l-118.417,118.417-103.958-103.958 118.417-118.417 103.958,103.958zm-143.858-143.858l25.758,25.758-118.417,118.416-25.757-25.757 118.416-118.417zm79.632,287.884l-28.577,.004-11.471-11.471 118.417-118.417 25.758,25.758-104.127,104.126z"/> <path d="m264.128,408.667c-34.447,0-65.296,17.81-82.52,47.643-1.786,3.094-1.786,6.906 0,10s5.088,5 8.66,5h147.718c3.572,0 6.874-1.906 8.66-5s1.786-6.906 0-10c-17.224-29.833-48.072-47.643-82.518-47.643zm-53.91,42.643c13.944-14.413 33.096-22.643 53.908-22.643 20.813,0 39.964,8.23 53.909,22.643h-107.817z"/> </g> </g>
</svg>